<?xml version="1.0" encoding="utf-8" ?>
<svg xmlns="http://www.w3.org/2000/svg" xmlns:xlink="http://www.w3.org/1999/xlink" width="256" height="256" viewBox="0 0 256 250">
	<path fill="#CD0000" d="M127.394 6.51192C129.082 6.42786 130.821 7.42079 132.337 8.08622C141.381 12.0555 150.282 16.4573 159.205 20.6962L194.546 37.2292Q209.431 44.1111 224.233 51.1688C227.484 52.7502 231.963 54.466 234.773 56.6314C233.875 57.7368 230.797 58.8772 229.427 59.5343L163.803 90.2465Q153.416 95.0369 143.089 99.9564C138.317 102.227 133.504 104.746 128.573 106.635C127.407 106.87 124.508 105.284 123.346 104.77C119.934 103.261 116.608 101.526 113.217 99.9608L75.59 82.3867C57.2622 73.8117 38.7206 65.5258 20.6177 56.487C56.3777 40.2076 91.5656 22.6387 127.394 6.51192ZM127.735 41.7304C122.674 43.6885 117.751 46.1734 112.84 48.4826Q104.278 52.4188 95.7587 56.4447C99.0508 58.2065 126.856 71.4302 128.325 71.5836C134.285 68.7292 140.216 65.7903 146.222 63.0375C150.866 60.9092 155.78 58.9674 160.243 56.4945C156.395 54.5377 130.123 41.8381 127.735 41.7304Z"/>
	<path fill="#CD0000" d="M244.937 68.0277C245.486 68.8069 245.37 69.572 245.381 70.5046C245.471 77.9184 245.288 85.3504 245.282 92.7663L245.207 151.159L245.224 181.125C245.243 186.611 245.54 192.189 245.22 197.661C242.856 199.503 239.696 200.655 237.014 201.977Q224.636 207.95 212.148 213.689L161.485 237.591L143.299 246.185C140.61 247.443 137.849 248.55 135.198 249.887C134.522 246.974 135.029 240.938 135.038 237.663Q134.992 221.909 135.223 206.157L135.358 146.208C135.377 137.418 135.135 128.567 135.395 119.787C139.445 117.129 147.966 113.644 152.658 111.532C158.705 108.811 164.661 105.829 170.689 103.046C181.638 97.9916 192.425 92.5677 203.352 87.4676Q218.685 80.431 233.899 73.1419C237.567 71.412 241.304 69.8313 244.937 68.0277ZM206.233 132C203.108 133.285 200.124 134.924 197.074 136.378C189.428 140.024 181.76 143.837 174.003 147.233C173.862 149.918 173.739 185.445 173.822 185.634C173.831 185.653 174.098 185.967 174.108 185.976C174.134 185.999 174.171 186.002 174.203 186.015C178.25 184.348 182.185 182.208 186.143 180.323L206.936 170.638C207.075 166.293 207.325 133.705 206.644 132.172L206.233 132Z"/>
	<path fill="#CD0000" d="M10.84 68.0696C17.1214 70.2396 23.6439 73.8817 29.6526 76.7989L56.0861 89.3649L98.1811 109.08C104.381 111.974 110.687 114.703 116.792 117.794C118.245 118.529 119.53 119.253 120.697 120.415C121.302 124.474 120.945 128.901 120.865 132.997C120.781 137.286 120.835 141.608 120.872 145.9L120.989 217.801L120.924 239.2C120.908 242.555 120.599 246.116 120.912 249.442C120.796 249.477 120.498 249.609 120.394 249.599C120.09 249.57 119.356 249.013 119.013 248.874C109.521 245.016 100.322 240.34 91.0714 235.924L38.1856 210.937C29.1028 206.657 20.0629 202.047 10.8631 198.05C10.4967 192.231 10.7136 186.309 10.7175 180.477L10.7102 150.714C10.6806 123.182 10.3488 95.5946 10.84 68.0696ZM49.2257 131.765C49.6912 144.646 49.6723 157.757 49.1394 170.64C57.1487 174.58 65.3241 178.192 73.4327 181.92C76.01 183.105 79.369 185.277 82.0772 185.808C82.1482 185.629 82.2194 185.507 82.2075 185.312Q81.996 173.231 82.1475 161.149C82.1627 156.533 81.9275 151.906 82.3161 147.301C76.1501 144.274 69.8962 141.437 63.723 138.425C59.7118 136.469 53.3268 132.892 49.2257 131.765Z"/>
</svg>
